<?xml version="1.0" encoding="utf-8"?>
<!-- Generator: Adobe Illustrator 24.0.1, SVG Export Plug-In . SVG Version: 6.00 Build 0)  -->
<svg version="1.1" id="Layer_1" xmlns="http://www.w3.org/2000/svg" xmlns:xlink="http://www.w3.org/1999/xlink" x="0px" y="0px"
	 viewBox="0 0 3000 3000" style="enable-background:new 0 0 3000 3000;" xml:space="preserve">
<style type="text/css">
	.st0{fill:#0C0B0A;stroke:#000000;stroke-miterlimit:10;}
	.st1{fill:#212529;stroke:#000000;stroke-miterlimit:10;}
	.st2{fill:#FFFFFF;stroke:#000000;stroke-miterlimit:10;}
	.st3{fill:#FFFFFF;}
</style>
<rect class="st0" width="3000" height="3000"/>
<rect x="-1079.2" y="178.6" class="st1" width="432" height="334.6"/>
<g>
	<path class="st2" d="M1032.5,936.1h412.4v658.8c0,0-14.6,119.6,163.5,134.2v229.4c0,0-568.6,36.6-575.8-305L1032.5,936.1
		L1032.5,936.1z"/>
	<polygon class="st2" points="1682,1824.3 1682,1253.4 1967.5,1447.9 1967.5,1997.6 	"/>
	<polygon class="st2" points="1682,1209.8 1682,934.1 1967.5,758.4 1967.5,1039 	"/>
</g>
<path class="st3" d="M1117.6,2114.3h12.3v97.9c0,6.2-1.8,11.9-5.2,17s-8,8.6-13.7,10.7c-3.2,1.1-6.1,1.7-8.9,1.7c-3,0-6-0.6-9.2-1.7
	c-5.7-2-10.2-5.6-13.7-10.7c-3.4-5.1-5.2-10.8-5.2-17v-97.9h12.5v67.8v5v25.3c0,4.5,1.6,8.3,4.6,11.4c3.1,3.2,6.8,4.7,11.1,4.7
	c4.3,0,7.9-1.6,11-4.7c3.1-3.2,4.6-7,4.6-11.4L1117.6,2114.3L1117.6,2114.3z"/>
<path class="st3" d="M1254.7,2180.1c-0.7,0.7-1.6,1.5-2.4,2l-2.4,1.7l11.8,57.7h-12.8l-11.1-54.6h-17.9v54.6h-12.6v-127.3h28
	c8.1,0,14.6,2.3,19.5,6.9c5.6,5,8.4,12.4,8.4,22v14.6c0,9.8-2.8,17.1-8.4,22.1L1254.7,2180.1z M1250.6,2157.8v-14.6
	c0-5.8-1.4-10-4.2-12.8l-0.1-0.1c-2.6-2.3-6.2-3.4-10.9-3.4h-15.3v47.5h15.3c4.7,0,8.4-1.2,11.1-3.6
	C1249.2,2168.2,1250.6,2164,1250.6,2157.8z"/>
<path class="st3" d="M1382.5,2176.7c0.2,0.1,0.4,0.3,0.7,0.6c0.3,0.3,0.9,0.8,1.8,1.7c0.9,0.8,1.8,1.8,2.6,2.7
	c0.8,0.9,1.8,2.1,2.8,3.6c1,1.5,2,3.1,2.9,4.6c0.8,1.6,1.7,3.5,2.4,5.7c0.7,2.1,1.3,4.4,1.6,6.7c0.4,2.2,0.5,4.8,0.3,7.6
	c-0.1,2.8-0.6,5.7-1.3,8.6c-1.6,6-4.6,11.4-9.3,16.1s-10.7,7-18.1,7h-28.4v-127.3h24.4c8.2,0,14.7,1.9,19.5,5.7
	c4.8,3.7,8.1,8.2,9.7,13.3c0,0.1,0,0.1,0.1,0.1c0,0,0.1,0,0.1,0.1c4.7,15.6,1.8,29.1-8.8,40.4L1382.5,2176.7z M1381.8,2221
	c2-3.8,3.1-8.1,3.1-12.6c0-4.6-1-8.8-3.1-12.6c-1.7-3.3-4-6-6.9-7.9c-3.3-2.4-6.9-3.6-10.8-3.6h-11.3v48.4h11.3
	c3.9,0,7.5-1.2,10.9-3.6c1.9-1.4,3.3-2.6,4.1-3.8C1380.2,2223.7,1381.2,2222.4,1381.8,2221z M1353.3,2124.1v46.5h11.1
	c3.7,0,7.3-1.1,10.5-3.4c1.3-0.9,2.6-2.1,3.8-3.7c0.9-1,1.9-2.3,2.7-4c2-3.7,3-7.7,3-12.1c0-4.5-1-8.5-3-12.2
	c-1.8-3.3-4-5.8-6.5-7.7c-3.3-2.3-6.8-3.4-10.5-3.4L1353.3,2124.1L1353.3,2124.1z"/>
<path class="st3" d="M1515.4,2114.3l25.4,127.3h-11.5l-0.1-0.7v-0.3l-4.1-17.9l-0.7-2.7h-2.7l-13.8-0.1l-13.9,0.1h-2.7l-0.7,2.7
	l-4,17.9l-0.1,0.1l-0.1,0.7h-11.5l25.4-127.3L1515.4,2114.3L1515.4,2114.3z M1495.3,2205.5h25.3l-12.6-74.6L1495.3,2205.5z"/>
<path class="st3" d="M1663.1,2114.3h12.2v127.3h-6.8l-38.3-83.2v83.2H1618v-127.3h6.7l38.5,85.5L1663.1,2114.3L1663.1,2114.3z"/>
<path class="st3" d="M1817.3,2114.6h23.7v94.4c0,7-2,13.3-5.9,19c-3.9,5.7-9,9.6-15.3,11.9c-3.4,1.2-6.9,1.8-10.4,1.8
	c-3.4,0-6.9-0.6-10.2-1.8c-6.3-2.3-11.4-6.3-15.3-12s-5.9-12-5.9-18.9v-94.4h23.7v60.5v32.7c0,2.2,0.7,4.2,2.2,5.8
	c1.5,1.6,3.3,2.4,5.5,2.4c2.1,0,4-0.8,5.5-2.4c1.6-1.6,2.3-3.5,2.3-5.8v-32.7L1817.3,2114.6L1817.3,2114.6z"/>
<path class="st3" d="M1930,2241.6h-25.5v-127.3h25.5V2241.6z"/>
</svg>
